<svg width="81" height="81" viewBox="0 0 81 81" fill="none" xmlns="http://www.w3.org/2000/svg">
<path d="M40.5436 56.6475L34.8797 50.9828L41.3527 44.5088L24.361 44.5088L24.361 36.4163L41.3527 36.4163L34.8797 29.9423L40.5436 24.2775L56.7261 40.4625L40.5436 56.6475ZM40.5436 80.9251C46.1401 80.9251 51.3994 79.8622 56.3216 77.7366C61.2438 75.6137 65.5254 72.7314 69.1665 69.0898C72.8076 65.4481 75.6894 61.1659 77.812 56.2429C79.9373 51.32 81 46.0598 81 40.4625C81 34.8652 79.9373 29.6051 77.812 24.6821C75.6894 19.7592 72.8076 15.4769 69.1665 11.8353C65.5254 8.19366 61.2438 5.31003 56.3216 3.1844C51.3994 1.06146 46.1401 -3.04755e-06 40.5436 -3.53681e-06C34.9471 -4.02607e-06 10.3024 -6.18058e-06 5.14423 -6.63152e-06C-0.317388 -7.10899e-06 0.0871734 0.149704 0.0871731 4.55203C0.0871726 9.60984 0.087172 16.9943 0.0871715 22.2544C0.0871711 27.5145 0.0871704 34.8652 0.0871699 40.4625C0.0871694 46.0598 0.0871677 65.6504 0.0871672 71.821C0.0871663 82.4424 -1.63223 80.9251 10.2013 80.9251C22.0348 80.9251 19.6074 80.9251 24.7656 80.9251C29.9238 80.9251 34.9471 80.9251 40.5436 80.9251Z" fill="white"/>
</svg>
