<svg width="81" height="81" viewBox="0 0 81 81" fill="none" xmlns="http://www.w3.org/2000/svg">
<path d="M40.4564 24.3525L46.1203 30.0172L39.6473 36.4912H56.639V44.5837H39.6473L46.1203 51.0577L40.4564 56.7225L24.2739 40.5375L40.4564 24.3525ZM40.4564 0.0749379C34.8599 0.0749379 29.6006 1.13775 24.6784 3.26338C19.7562 5.38632 15.4746 8.2686 11.8335 11.9102C8.19243 15.5519 5.31058 19.8341 3.18797 24.7571C1.06266 29.68 0 34.9402 0 40.5375C0 46.1348 1.06266 51.3949 3.18797 56.3179C5.31058 61.2408 8.19243 65.5231 11.8335 69.1647C15.4746 72.8063 19.7562 75.69 24.6784 77.8156C29.6006 79.9385 34.8599 81 40.4564 81C46.0529 81 70.6976 81 75.8558 81C81.3174 81 80.9128 80.8503 80.9128 76.448C80.9128 71.3901 80.9128 64.0057 80.9128 58.7456C80.9128 53.4855 80.9128 46.1348 80.9128 40.5375C80.9128 34.9402 80.9128 15.3495 80.9128 9.17901C80.9128 -1.44241 82.6322 0.0749379 70.7987 0.0749379C58.9652 0.0749379 61.3926 0.0749379 56.2344 0.0749379C51.0762 0.0749379 46.0529 0.0749379 40.4564 0.0749379Z" fill="white"/>
</svg>
